# xmcd
#
# Track frame offsets:
#  150
#  12497
#  27950
#  41628
#  54869
#  63937
#  80914
#  93679
#  106847
#  117615
#  128428
#  140190
#  154075
#  165674
#  178486
#  189713
#
# Disc length: 2666 seconds
#
# Revision: 0
# Processed by: cddbd v1.5.2PL0 Copyright (c) Steve Scherf et al.
# Submitted via: Collectorz.com_Music_Collector 6.11
#
DISCID=e40a6810
DTITLE=Various Artist - Country Showdown
DYEAR=1900
DGENRE=Country
TTITLE0=Bobby Bare - When The Love Is Gone
TTITLE1=Conway Twitty - Touch The Hand
TTITLE2=Dave Dudley - The Waterin' Hole
TTITLE3=Faron Young - Three Days
TTITLE4=Frankie Laine - Rawhide
TTITLE5=Glen Campbell - Southern Nights (Live)
TTITLE6=Hank Locklin - Who Do You Think You're Foolin'
TTITLE7=Hank Thompson - The Wild Side Of Life
TTITLE8=Jim Reeves - I Love You More
TTITLE9=Johnny Paycheck - Heartbreak Tennessee
TTITLE10=Patsy Cline - Today, Tomorrow and Forever
TTITLE11=Roy Clark - Daddy Don't You Walk So Fast
TTITLE12=The Jordanaires - Skip-A-Rope
TTITLE13=Tommy Overstreet - Send Me No Roses
TTITLE14=Waylon Jennings - Sally Was A Good Old Girl
TTITLE15=Willie Nelson - Blame It On The Times
EXTD=
EXTT0=
EXTT1=
EXTT2=
EXTT3=
EXTT4=
EXTT5=
EXTT6=
EXTT7=
EXTT8=
EXTT9=
EXTT10=
EXTT11=
EXTT12=
EXTT13=
EXTT14=
EXTT15=
PLAYORDER=
